<?xml version="1.0" encoding="UTF-8" standalone="no"?>
<!-- Created with Inkscape (http://www.inkscape.org/) -->

<svg
   width="180"
   height="180"
   viewBox="0 0 180 180"
   version="1.1"
   id="svg1"
   xml:space="preserve"
   inkscape:export-filename="C:\Users\DrAhmedBenarab\Music\AnkiPapers logo.png"
   inkscape:export-xdpi="96"
   inkscape:export-ydpi="96"
   sodipodi:docname="AnkiPapers logo.svg"
   inkscape:version="1.4.2 (f4327f4, 2025-05-13)"
   xmlns:inkscape="http://www.inkscape.org/namespaces/inkscape"
   xmlns:sodipodi="http://sodipodi.sourceforge.net/DTD/sodipodi-0.dtd"
   xmlns:xlink="http://www.w3.org/1999/xlink"
   xmlns="http://www.w3.org/2000/svg"
   xmlns:svg="http://www.w3.org/2000/svg"><sodipodi:namedview
     id="namedview1"
     pagecolor="#ffffff"
     bordercolor="#000000"
     borderopacity="0.25"
     inkscape:showpageshadow="2"
     inkscape:pageopacity="0.0"
     inkscape:pagecheckerboard="0"
     inkscape:deskcolor="#d1d1d1"
     inkscape:document-units="px"
     inkscape:zoom="3.0366308"
     inkscape:cx="60.264159"
     inkscape:cy="102.25148"
     inkscape:window-width="1920"
     inkscape:window-height="991"
     inkscape:window-x="-9"
     inkscape:window-y="-9"
     inkscape:window-maximized="1"
     inkscape:current-layer="layer1"><inkscape:page
       x="0"
       y="0"
       width="180"
       height="180"
       id="page2"
       margin="0"
       bleed="0" /></sodipodi:namedview><defs
     id="defs1"><rect
       x="-192.64772"
       y="-23.051865"
       width="123.16282"
       height="100.76958"
       id="rect7" /><linearGradient
       id="linearGradient4825"><stop
         id="stop4827"
         offset="0"
         style="stop-color:#0084dd;stop-opacity:1" /><stop
         id="stop4829"
         offset="1"
         style="stop-color:white;stop-opacity:1" /></linearGradient><clipPath
       clipPathUnits="userSpaceOnUse"
       id="clipPath2815"><rect
         style="opacity:1;fill:#d533e4;fill-opacity:0.540984;stroke:none;stroke-width:1;stroke-miterlimit:4;stroke-dasharray:none;stroke-opacity:1"
         id="rect1913"
         width="23"
         height="30"
         x="5"
         y="1"
         ry="4.6187186"
         rx="4.6187186" /></clipPath><linearGradient
       inkscape:collect="always"
       xlink:href="#linearGradient4825"
       id="linearGradient2"
       gradientUnits="userSpaceOnUse"
       x1="253.74718"
       y1="412.82977"
       x2="188.00023"
       y2="542.33295" /></defs><g
     inkscape:label="Layer 1"
     inkscape:groupmode="layer"
     id="layer1"><g
       id="g1"
       transform="matrix(0.80105933,0.24875148,-0.24875148,0.80105933,37.365442,-125.06456)"
       inkscape:transform-center-x="-37.29818"
       inkscape:transform-center-y="-20.483739"><g
         id="g43"
         transform="matrix(0.36235619,0.00109694,-0.00109694,0.36235619,57.945646,159.82672)"
         inkscape:transform-center-x="25.266613"
         inkscape:transform-center-y="-38.032676">
	<path
   style="fill:#828282"
   d="m 205.648,223.93 c -0.01,5.776 -4.7,10.451 -10.475,10.439 L 77.94,234.167 c -5.775,-0.01 -10.449,-4.699 -10.439,-10.475 L 67.83,35.506 C 67.84,29.73 72.531,25.057 78.305,25.068 l 117.233,0.203 c 5.774,0.01 10.449,4.7 10.439,10.475 z"
   id="path29" />
	
		<linearGradient
   id="SVGID_00000139276779457633436320000007513792429663246520_"
   gradientUnits="userSpaceOnUse"
   x1="69.841698"
   y1="212.27161"
   x2="184.27721"
   y2="-57.3214"
   gradientTransform="matrix(1,0.0017,-0.0017,1,21.2377,26.6401)">
		<stop
   offset="0"
   style="stop-color:#E1E1E1"
   id="stop29" />
		<stop
   offset="0.1158"
   style="stop-color:#ECECEC"
   id="stop30" />
		<stop
   offset="0.3159"
   style="stop-color:#FAFAFA"
   id="stop31" />
		<stop
   offset="0.4909"
   style="stop-color:#FFFFFF"
   id="stop32" />
		<stop
   offset="0.6975"
   style="stop-color:#FCFCFC"
   id="stop33" />
		<stop
   offset="0.8527"
   style="stop-color:#F2F2F2"
   id="stop34" />
		<stop
   offset="0.991"
   style="stop-color:#E2E2E2"
   id="stop35" />
		<stop
   offset="1"
   style="stop-color:#E1E1E1"
   id="stop36" />
	</linearGradient>
	<path
   style="fill:url(#SVGID_00000139276779457633436320000007513792429663246520_)"
   d="m 206.694,222.884 c -0.01,5.776 -4.7,10.451 -10.475,10.439 L 78.986,233.12 C 73.211,233.11 68.537,228.421 68.547,222.645 L 68.876,34.459 c 0.01,-5.776 4.701,-10.449 10.475,-10.438 l 117.233,0.203 c 5.774,0.01 10.449,4.7 10.438,10.475 z"
   id="path36" />
	<path
   style="fill:#eb3000"
   d="m 80.161,54.554 c -1.682,-3.175 -6.061,-1.995 -6.093,1.135 -0.035,3.507 4.477,5.343 5.973,8.623 l 0.024,0.045 0.024,-0.047 c 1.562,-3.246 6.108,-4.992 6.145,-8.5 0.03,-3.13 -4.326,-4.395 -6.073,-1.256 z"
   id="path37" />
	<path
   style="fill:#eb3000"
   d="m 195.259,200.53 c -1.7,3.164 -6.073,1.959 -6.086,-1.17 -0.015,-3.507 4.507,-5.318 6.022,-8.591 l 0.024,-0.044 0.024,0.046 c 1.543,3.256 6.079,5.029 6.095,8.536 0.013,3.131 -4.351,4.372 -6.079,1.223 z"
   id="path38" />
	<path
   style="fill:#b50f00"
   d="m 81.191,42.82 c -0.024,-0.098 -0.097,-0.177 -0.219,-0.177 h -1.801 c -0.073,0 -0.122,0.058 -0.146,0.138 l -0.365,2.156 c -0.024,0.137 0.024,0.256 0.122,0.354 l 0.535,0.45 c 0.098,0.098 0.243,0.178 0.243,0.236 0,0.058 -0.049,0.118 -0.17,0.118 h -2.799 c -0.098,0 -0.146,-0.059 -0.146,-0.118 0,-0.058 0.098,-0.138 0.171,-0.196 l 0.681,-0.549 c 0.146,-0.118 0.171,-0.314 0.195,-0.49 l 2.215,-13.177 c 0.024,-0.098 0.073,-0.176 0.195,-0.176 h 0.9 c 0.122,0 0.195,0.098 0.219,0.215 l 2.312,13.158 c 0.024,0.196 0.098,0.412 0.268,0.531 l 0.706,0.509 c 0.073,0.059 0.146,0.119 0.146,0.177 0,0.058 -0.049,0.118 -0.171,0.118 h -3.504 c -0.122,0 -0.17,-0.059 -0.17,-0.118 0,-0.058 0.098,-0.118 0.17,-0.177 l 0.657,-0.529 c 0.098,-0.078 0.146,-0.216 0.122,-0.393 z m -0.34,-1.216 c 0.073,0 0.122,-0.059 0.098,-0.137 l -0.852,-4.804 h -0.049 l -0.803,4.824 c -0.025,0.079 0.025,0.118 0.073,0.118 h 1.533 z"
   id="path39" />
	<path
   style="fill:#eb3000"
   d="m 81.191,42.82 c -0.024,-0.098 -0.097,-0.177 -0.219,-0.177 h -1.801 c -0.073,0 -0.122,0.058 -0.146,0.138 l -0.365,2.156 c -0.024,0.137 0.024,0.256 0.122,0.354 l 0.535,0.45 c 0.098,0.098 0.243,0.178 0.243,0.236 0,0.058 -0.049,0.118 -0.17,0.118 h -2.799 c -0.098,0 -0.146,-0.059 -0.146,-0.118 0,-0.058 0.098,-0.138 0.171,-0.196 l 0.681,-0.549 c 0.146,-0.118 0.171,-0.314 0.195,-0.49 l 2.215,-13.177 c 0.024,-0.098 0.073,-0.176 0.195,-0.176 h 0.9 c 0.122,0 0.195,0.098 0.219,0.215 l 2.312,13.158 c 0.024,0.196 0.098,0.412 0.268,0.531 l 0.706,0.509 c 0.073,0.059 0.146,0.119 0.146,0.177 0,0.058 -0.049,0.118 -0.171,0.118 h -3.504 c -0.122,0 -0.17,-0.059 -0.17,-0.118 0,-0.058 0.098,-0.118 0.17,-0.177 l 0.657,-0.529 c 0.098,-0.078 0.146,-0.216 0.122,-0.393 z m -0.34,-1.216 c 0.073,0 0.122,-0.059 0.098,-0.137 l -0.852,-4.804 h -0.049 l -0.803,4.824 c -0.025,0.079 0.025,0.118 0.073,0.118 h 1.533 z"
   id="path40" />
	<path
   style="fill:#eb3000"
   d="m 194.824,212.57 c 0.025,0.098 0.097,0.177 0.219,0.177 h 1.802 c 0.073,0 0.121,-0.059 0.145,-0.138 l 0.366,-2.156 c 0.023,-0.137 -0.025,-0.255 -0.123,-0.354 l -0.536,-0.451 c -0.097,-0.098 -0.243,-0.177 -0.243,-0.235 0,-0.059 0.049,-0.118 0.171,-0.118 h 2.799 c 0.097,0 0.145,0.058 0.145,0.118 0,0.058 -0.097,0.137 -0.17,0.196 l -0.682,0.549 c -0.146,0.117 -0.171,0.314 -0.195,0.491 l -2.214,13.177 c -0.025,0.098 -0.074,0.176 -0.195,0.176 h -0.9 c -0.122,0 -0.194,-0.098 -0.219,-0.216 l -2.312,-13.157 c -0.025,-0.196 -0.098,-0.412 -0.268,-0.53 l -0.706,-0.509 c -0.073,-0.059 -0.146,-0.119 -0.146,-0.177 0,-0.059 0.049,-0.118 0.171,-0.118 h 3.504 c 0.122,0 0.17,0.058 0.17,0.118 0,0.058 -0.097,0.118 -0.17,0.177 l -0.657,0.529 c -0.097,0.078 -0.146,0.216 -0.122,0.391 z m 0.34,1.216 c -0.073,0 -0.122,0.058 -0.097,0.137 l 0.851,4.804 h 0.049 l 0.803,-4.824 c 0.024,-0.079 -0.025,-0.118 -0.074,-0.118 h -1.532 z"
   id="path41" />
	<g
   id="g42">
		<path
   style="fill:#eb3000"
   d="m 137.784,115.257 c -6.206,-11.432 -22.027,-7.003 -22.027,4.332 0,12.7 16.402,17.189 21.941,29.01 l 0.085,0.166 0.085,-0.166 c 5.538,-11.821 21.943,-16.31 21.943,-29.01 0,-11.334 -15.82,-15.764 -22.027,-4.332 z"
   id="path42" />
	</g>
</g><g
         id="g57"
         transform="matrix(0.36681724,0.09947951,-0.09947951,0.36681724,14.58732,120.63019)">
	<path
   style="fill:#828282"
   d="m 381.125,223.93 c -0.01,5.776 -4.7,10.451 -10.475,10.439 l -117.234,-0.202 c -5.774,-0.01 -10.449,-4.699 -10.439,-10.475 l 0.328,-188.186 c 0.01,-5.776 4.701,-10.449 10.475,-10.438 l 117.234,0.203 c 5.774,0.01 10.449,4.7 10.439,10.475 z"
   id="path43" />
	
		<linearGradient
   id="SVGID_00000141447816915478753980000004530917206492767669_"
   gradientUnits="userSpaceOnUse"
   x1="245.3187"
   y1="211.9733"
   x2="354.55069"
   y2="-45.361198"
   gradientTransform="matrix(1,0.0017,-0.0017,1,21.2377,26.6401)">
		<stop
   offset="0"
   style="stop-color:#E1E1E1"
   id="stop43" />
		<stop
   offset="0.1158"
   style="stop-color:#ECECEC"
   id="stop44" />
		<stop
   offset="0.3159"
   style="stop-color:#FAFAFA"
   id="stop45" />
		<stop
   offset="0.4909"
   style="stop-color:#FFFFFF"
   id="stop46" />
		<stop
   offset="0.6975"
   style="stop-color:#FCFCFC"
   id="stop47" />
		<stop
   offset="0.8527"
   style="stop-color:#F2F2F2"
   id="stop48" />
		<stop
   offset="0.991"
   style="stop-color:#E2E2E2"
   id="stop49" />
		<stop
   offset="1"
   style="stop-color:#E1E1E1"
   id="stop50" />
	</linearGradient>
	<path
   style="fill:url(#SVGID_00000141447816915478753980000004530917206492767669_)"
   d="m 382.172,222.884 c -0.01,5.776 -4.7,10.451 -10.475,10.439 l -117.234,-0.202 c -5.774,-0.01 -10.449,-4.699 -10.438,-10.475 L 244.353,34.46 c 0.01,-5.776 4.701,-10.449 10.475,-10.438 l 117.234,0.203 c 5.774,0.01 10.449,4.7 10.439,10.475 z"
   id="path50" />
	<path
   d="m 261.983,60.452 c 0.002,-3.629 -4.683,-5.483 -6.263,-8.859 l -0.023,-0.047 -0.024,0.046 c -1.583,3.377 -6.268,5.226 -6.27,8.853 0.001,3.035 4.011,4.207 5.968,1.669 0.043,-0.128 -0.004,0.806 -0.135,1.335 -0.47,1.557 -2.158,3.826 -2.98,4.529 1.137,-0.975 5.735,-0.974 6.871,0.002 -0.82,-0.705 -2.427,-2.894 -2.977,-4.532 -0.113,-0.454 -0.181,-0.912 -0.21,-1.368 1.908,2.754 6.042,1.466 6.043,-1.628 z"
   id="path51" />
	<path
   d="m 372.101,193.493 c 0.03,-0.457 0.097,-0.915 0.211,-1.368 0.55,-1.638 2.158,-3.827 2.977,-4.533 -1.135,0.976 -5.734,0.977 -6.871,0.002 0.822,0.703 2.51,2.972 2.98,4.529 0.131,0.528 0.178,1.462 0.135,1.335 -1.957,-2.539 -5.967,-1.366 -5.968,1.669 0.002,3.627 4.687,5.477 6.27,8.853 l 0.025,0.046 0.023,-0.047 c 1.58,-3.376 6.265,-5.229 6.263,-8.859 -0.002,-3.094 -4.136,-4.382 -6.045,-1.627 z"
   id="path52" />
	<path
   d="m 257.005,42.82 c -0.025,-0.098 -0.097,-0.177 -0.219,-0.177 h -1.802 c -0.073,0 -0.121,0.058 -0.145,0.138 l -0.366,2.156 c -0.024,0.137 0.024,0.256 0.123,0.354 l 0.535,0.45 c 0.097,0.098 0.243,0.178 0.243,0.236 0,0.058 -0.049,0.118 -0.171,0.118 h -2.799 c -0.097,0 -0.145,-0.059 -0.145,-0.118 0,-0.058 0.097,-0.138 0.17,-0.196 l 0.682,-0.549 c 0.146,-0.118 0.171,-0.314 0.195,-0.49 l 2.214,-13.177 c 0.024,-0.098 0.074,-0.176 0.195,-0.176 h 0.9 c 0.122,0 0.194,0.098 0.219,0.215 l 2.312,13.158 c 0.025,0.196 0.098,0.412 0.268,0.531 l 0.706,0.509 c 0.073,0.059 0.146,0.119 0.146,0.177 0,0.058 -0.049,0.118 -0.171,0.118 h -3.504 c -0.122,0 -0.17,-0.059 -0.17,-0.118 0,-0.058 0.097,-0.118 0.17,-0.177 l 0.657,-0.529 c 0.097,-0.078 0.146,-0.216 0.122,-0.393 z m -0.34,-1.216 c 0.073,0 0.122,-0.059 0.097,-0.137 l -0.851,-4.804 h -0.049 l -0.803,4.824 c -0.025,0.079 0.025,0.118 0.074,0.118 h 1.532 z"
   id="path53" />
	<path
   d="m 257.005,42.82 c -0.025,-0.098 -0.097,-0.177 -0.219,-0.177 h -1.802 c -0.073,0 -0.121,0.058 -0.145,0.138 l -0.366,2.156 c -0.024,0.137 0.024,0.256 0.123,0.354 l 0.535,0.45 c 0.097,0.098 0.243,0.178 0.243,0.236 0,0.058 -0.049,0.118 -0.171,0.118 h -2.799 c -0.097,0 -0.145,-0.059 -0.145,-0.118 0,-0.058 0.097,-0.138 0.17,-0.196 l 0.682,-0.549 c 0.146,-0.118 0.171,-0.314 0.195,-0.49 l 2.214,-13.177 c 0.024,-0.098 0.074,-0.176 0.195,-0.176 h 0.9 c 0.122,0 0.194,0.098 0.219,0.215 l 2.312,13.158 c 0.025,0.196 0.098,0.412 0.268,0.531 l 0.706,0.509 c 0.073,0.059 0.146,0.119 0.146,0.177 0,0.058 -0.049,0.118 -0.171,0.118 h -3.504 c -0.122,0 -0.17,-0.059 -0.17,-0.118 0,-0.058 0.097,-0.118 0.17,-0.177 l 0.657,-0.529 c 0.097,-0.078 0.146,-0.216 0.122,-0.393 z m -0.34,-1.216 c 0.073,0 0.122,-0.059 0.097,-0.137 l -0.851,-4.804 h -0.049 l -0.803,4.824 c -0.025,0.079 0.025,0.118 0.074,0.118 h 1.532 z"
   id="path54" />
	<path
   d="m 370.638,212.57 c 0.025,0.098 0.097,0.177 0.219,0.177 h 1.802 c 0.073,0 0.122,-0.059 0.145,-0.138 l 0.366,-2.156 c 0.023,-0.137 -0.025,-0.255 -0.122,-0.354 l -0.536,-0.451 c -0.098,-0.098 -0.243,-0.177 -0.243,-0.235 0,-0.059 0.048,-0.118 0.17,-0.118 h 2.799 c 0.097,0 0.146,0.058 0.146,0.118 0,0.058 -0.098,0.137 -0.171,0.196 l -0.682,0.549 c -0.146,0.117 -0.171,0.314 -0.194,0.491 l -2.215,13.177 c -0.025,0.098 -0.074,0.176 -0.195,0.176 h -0.9 c -0.122,0 -0.194,-0.098 -0.219,-0.216 l -2.312,-13.157 c -0.025,-0.196 -0.098,-0.412 -0.268,-0.53 l -0.706,-0.509 c -0.073,-0.059 -0.146,-0.119 -0.146,-0.177 0,-0.059 0.049,-0.118 0.171,-0.118 h 3.504 c 0.122,0 0.171,0.058 0.171,0.118 0,0.058 -0.098,0.118 -0.171,0.177 l -0.657,0.529 c -0.097,0.078 -0.146,0.216 -0.122,0.391 z m 0.341,1.216 c -0.074,0 -0.123,0.058 -0.098,0.137 l 0.852,4.804 h 0.048 l 0.803,-4.824 c 0.025,-0.079 -0.025,-0.118 -0.073,-0.118 h -1.532 z"
   id="path55" />
	<g
   id="g56">
		<path
   d="m 334.791,131.017 c 0,-12.413 -16.033,-18.754 -21.446,-30.309 l -0.082,-0.162 -0.083,0.162 c -5.414,11.554 -21.446,17.896 -21.446,30.309 0,10.386 13.733,14.398 20.429,5.706 0.142,-0.441 -0.014,2.762 -0.464,4.563 -1.606,5.334 -7.384,13.096 -10.193,15.51 3.886,-3.34 19.629,-3.34 23.515,0 -2.809,-2.414 -8.306,-9.906 -10.194,-15.512 -0.387,-1.552 -0.62,-3.116 -0.721,-4.682 6.535,9.425 20.685,5.014 20.685,-5.585 z"
   id="path56" />
	</g>
</g><g
         id="g29"
         transform="matrix(0.33240764,0.1652489,-0.1652489,0.33240764,139.07839,51.545702)"
         inkscape:transform-center-x="5.5220541"
         inkscape:transform-center-y="-46.432538">
	<path
   style="fill:#828282"
   d="m 205.648,465.542 c -0.01,5.776 -4.7,10.45 -10.475,10.438 L 77.94,475.778 c -5.775,-0.01 -10.449,-4.699 -10.439,-10.475 L 67.83,277.117 c 0.01,-5.776 4.701,-10.449 10.475,-10.439 l 117.233,0.203 c 5.774,0.01 10.449,4.7 10.439,10.475 z"
   id="path15" />
	
		<linearGradient
   id="SVGID_00000098915918794306808130000016650246568689830809_"
   gradientUnits="userSpaceOnUse"
   x1="70.252502"
   y1="453.8819"
   x2="183.3837"
   y2="187.3616"
   gradientTransform="matrix(1,0.0017,-0.0017,1,21.2377,26.6401)">
		<stop
   offset="0"
   style="stop-color:#E1E1E1"
   id="stop15" />
		<stop
   offset="0.1158"
   style="stop-color:#ECECEC"
   id="stop16" />
		<stop
   offset="0.3159"
   style="stop-color:#FAFAFA"
   id="stop17" />
		<stop
   offset="0.4909"
   style="stop-color:#FFFFFF"
   id="stop18" />
		<stop
   offset="0.6975"
   style="stop-color:#FCFCFC"
   id="stop19" />
		<stop
   offset="0.8527"
   style="stop-color:#F2F2F2"
   id="stop20" />
		<stop
   offset="0.991"
   style="stop-color:#E2E2E2"
   id="stop21" />
		<stop
   offset="1"
   style="stop-color:#E1E1E1"
   id="stop22" />
	</linearGradient>
	<path
   style="fill:url(#SVGID_00000098915918794306808130000016650246568689830809_)"
   d="m 206.694,464.495 c -0.01,5.776 -4.7,10.45 -10.475,10.438 L 78.986,474.731 c -5.775,-0.01 -10.449,-4.699 -10.439,-10.475 L 68.876,276.07 c 0.01,-5.776 4.701,-10.449 10.475,-10.439 l 117.233,0.203 c 5.774,0.01 10.449,4.7 10.438,10.475 z"
   id="path22" />
	<g
   id="g23">
		<path
   style="clip-rule:evenodd;fill:#191919;fill-rule:evenodd"
   d="m 83.619,296.83 c -0.894,-0.012 -1.672,0.501 -2.045,1.252 -0.289,0.336 -0.732,0.478 -1.179,0.569 0.109,-0.543 0.242,-1.137 0.669,-1.486 0.76,-0.354 1.294,-1.117 1.307,-2.011 0.016,-1.244 -0.978,-2.264 -2.221,-2.281 -1.243,-0.017 -2.264,0.978 -2.281,2.221 -0.011,0.894 0.502,1.672 1.254,2.045 0.362,0.273 0.516,0.933 0.624,1.503 -0.443,-0.102 -0.88,-0.256 -1.16,-0.598 -0.352,-0.761 -1.117,-1.295 -2.012,-1.308 -1.242,-0.016 -2.264,0.977 -2.281,2.221 -0.016,1.243 0.979,2.265 2.222,2.281 0.894,0.012 1.756,-0.584 2.129,-1.335 0.317,-0.343 0.721,-0.421 1.184,-0.501 0.037,0.638 0.005,1.326 -0.097,1.726 -0.474,1.302 -1.644,2.847 -2.266,3.368 0.844,-0.705 4.228,-0.662 5.053,0.067 -0.608,-0.537 -1.817,-2.197 -2.174,-3.427 -0.11,-0.492 -0.085,-1.408 -0.072,-1.732 0.471,0.094 0.878,0.181 1.191,0.536 0.354,0.761 1.199,1.38 2.094,1.391 1.244,0.017 2.265,-0.978 2.28,-2.221 0.019,-1.243 -0.975,-2.265 -2.219,-2.28 z"
   id="path23" />
	</g>
	<g
   id="g24">
		<path
   style="clip-rule:evenodd;fill:#191919;fill-rule:evenodd"
   d="m 192.369,438.519 c 0.895,-0.003 1.664,-0.529 2.025,-1.286 0.284,-0.34 0.725,-0.488 1.17,-0.586 -0.1,0.546 -0.225,1.142 -0.644,1.498 -0.755,0.363 -1.277,1.135 -1.275,2.032 0.003,1.242 1.013,2.249 2.257,2.244 1.244,-0.003 2.248,-1.013 2.245,-2.258 -0.003,-0.894 -0.529,-1.663 -1.287,-2.025 -0.367,-0.266 -0.53,-0.924 -0.648,-1.492 0.444,0.095 0.885,0.242 1.169,0.579 0.364,0.756 1.137,1.278 2.031,1.275 1.244,-0.004 2.25,-1.014 2.247,-2.257 -0.006,-1.243 -1.015,-2.248 -2.259,-2.245 -0.893,0.001 -1.747,0.612 -2.108,1.367 -0.313,0.349 -0.713,0.433 -1.175,0.521 -0.049,-0.636 -0.027,-1.327 0.067,-1.727 0.453,-1.309 1.6,-2.873 2.214,-3.404 -0.833,0.719 -4.217,0.729 -5.054,0.013 0.615,0.527 1.852,2.169 2.228,3.392 0.119,0.491 0.108,1.407 0.098,1.73 -0.471,-0.086 -0.879,-0.165 -1.198,-0.517 -0.365,-0.756 -1.22,-1.36 -2.116,-1.358 -1.243,0.004 -2.249,1.013 -2.246,2.257 0.005,1.245 1.016,2.25 2.259,2.247 z"
   id="path24" />
	</g>
	<path
   d="m 81.191,284.431 c -0.024,-0.098 -0.097,-0.176 -0.219,-0.176 h -1.801 c -0.073,0 -0.122,0.059 -0.146,0.137 l -0.365,2.157 c -0.024,0.137 0.024,0.255 0.122,0.353 l 0.535,0.451 c 0.098,0.098 0.243,0.177 0.243,0.236 0,0.059 -0.049,0.118 -0.17,0.118 h -2.799 c -0.098,0 -0.146,-0.059 -0.146,-0.118 0,-0.059 0.098,-0.137 0.171,-0.196 l 0.681,-0.549 c 0.146,-0.118 0.171,-0.314 0.195,-0.491 l 2.215,-13.177 C 79.731,273.078 79.78,273 79.902,273 h 0.9 c 0.122,0 0.195,0.098 0.219,0.216 l 2.312,13.157 c 0.024,0.196 0.098,0.412 0.268,0.53 l 0.706,0.509 c 0.073,0.059 0.146,0.118 0.146,0.177 0,0.059 -0.049,0.118 -0.171,0.118 h -3.504 c -0.122,0 -0.17,-0.059 -0.17,-0.118 0,-0.059 0.098,-0.117 0.17,-0.177 l 0.657,-0.529 c 0.098,-0.078 0.146,-0.216 0.122,-0.392 z m -0.34,-1.215 c 0.073,0 0.122,-0.059 0.098,-0.137 l -0.852,-4.804 h -0.049 l -0.803,4.824 c -0.025,0.078 0.025,0.117 0.073,0.117 z"
   id="path25" />
	<path
   d="m 81.191,284.431 c -0.024,-0.098 -0.097,-0.176 -0.219,-0.176 h -1.801 c -0.073,0 -0.122,0.059 -0.146,0.137 l -0.365,2.157 c -0.024,0.137 0.024,0.255 0.122,0.353 l 0.535,0.451 c 0.098,0.098 0.243,0.177 0.243,0.236 0,0.059 -0.049,0.118 -0.17,0.118 h -2.799 c -0.098,0 -0.146,-0.059 -0.146,-0.118 0,-0.059 0.098,-0.137 0.171,-0.196 l 0.681,-0.549 c 0.146,-0.118 0.171,-0.314 0.195,-0.491 l 2.215,-13.177 C 79.731,273.078 79.78,273 79.902,273 h 0.9 c 0.122,0 0.195,0.098 0.219,0.216 l 2.312,13.157 c 0.024,0.196 0.098,0.412 0.268,0.53 l 0.706,0.509 c 0.073,0.059 0.146,0.118 0.146,0.177 0,0.059 -0.049,0.118 -0.171,0.118 h -3.504 c -0.122,0 -0.17,-0.059 -0.17,-0.118 0,-0.059 0.098,-0.117 0.17,-0.177 l 0.657,-0.529 c 0.098,-0.078 0.146,-0.216 0.122,-0.392 z m -0.34,-1.215 c 0.073,0 0.122,-0.059 0.098,-0.137 l -0.852,-4.804 h -0.049 l -0.803,4.824 c -0.025,0.078 0.025,0.117 0.073,0.117 z"
   id="path26" />
	<path
   d="m 194.824,454.181 c 0.025,0.098 0.097,0.177 0.219,0.177 h 1.802 c 0.073,0 0.121,-0.058 0.145,-0.138 l 0.366,-2.156 c 0.023,-0.137 -0.025,-0.256 -0.123,-0.354 l -0.536,-0.45 c -0.097,-0.098 -0.243,-0.178 -0.243,-0.236 0,-0.058 0.049,-0.117 0.171,-0.117 h 2.799 c 0.097,0 0.145,0.059 0.145,0.117 0,0.058 -0.097,0.138 -0.17,0.196 l -0.682,0.549 c -0.146,0.119 -0.171,0.314 -0.195,0.491 l -2.214,13.177 c -0.025,0.098 -0.074,0.176 -0.195,0.176 h -0.9 c -0.122,0 -0.194,-0.098 -0.219,-0.215 l -2.312,-13.158 c -0.025,-0.196 -0.098,-0.412 -0.268,-0.53 l -0.706,-0.509 c -0.073,-0.059 -0.146,-0.119 -0.146,-0.177 0,-0.058 0.049,-0.117 0.171,-0.117 h 3.504 c 0.122,0 0.17,0.059 0.17,0.117 0,0.058 -0.097,0.117 -0.17,0.177 l -0.657,0.529 c -0.097,0.078 -0.146,0.216 -0.122,0.392 z m 0.34,1.217 c -0.073,0 -0.122,0.059 -0.097,0.137 l 0.851,4.804 h 0.049 l 0.803,-4.824 c 0.024,-0.079 -0.025,-0.117 -0.074,-0.117 z"
   id="path27" />
	<g
   id="g28">
		<path
   style="clip-rule:evenodd;fill-rule:evenodd"
   d="m 154.781,361.028 c -4.319,0 -8.037,2.526 -9.788,6.176 -1.373,1.638 -3.503,2.349 -5.651,2.818 0.486,-2.628 1.091,-5.507 3.128,-7.214 3.65,-1.751 6.176,-5.47 6.176,-9.789 0,-5.998 -4.861,-10.861 -10.861,-10.861 -5.999,0 -10.862,4.863 -10.862,10.861 0,4.318 2.527,8.038 6.177,9.789 1.768,1.292 2.556,4.471 3.111,7.211 -2.143,-0.469 -4.265,-1.181 -5.634,-2.814 -1.751,-3.65 -5.47,-6.176 -9.788,-6.176 -5.998,0 -10.861,4.862 -10.861,10.861 0,5.999 4.863,10.862 10.861,10.862 4.318,0 8.439,-2.929 10.19,-6.578 1.511,-1.675 3.449,-2.076 5.685,-2.496 0.216,3.074 0.104,6.4 -0.359,8.336 -2.201,6.31 -7.745,13.844 -10.713,16.395 4.03,-3.463 20.356,-3.463 24.385,0 -2.967,-2.551 -8.909,-10.487 -10.712,-16.395 -0.566,-2.369 -0.501,-6.787 -0.456,-8.354 2.277,0.428 4.248,0.815 5.781,2.514 1.751,3.649 5.872,6.578 10.19,6.578 5.998,0 10.861,-4.863 10.861,-10.862 0.001,-6.001 -4.862,-10.862 -10.86,-10.862 z"
   id="path28" />
	</g>
</g><g
         id="g15"
         transform="matrix(0.28754097,0.26468285,-0.26468285,0.28754097,146.8862,6.3859355)"
         inkscape:transform-center-x="-7.2106088"
         inkscape:transform-center-y="-48.74861">
	<path
   style="fill:#828282"
   d="m 381.125,465.542 c -0.01,5.776 -4.7,10.45 -10.475,10.438 l -117.234,-0.202 c -5.774,-0.01 -10.449,-4.699 -10.439,-10.475 l 0.328,-188.186 c 0.01,-5.776 4.701,-10.449 10.475,-10.439 l 117.234,0.203 c 5.774,0.01 10.449,4.7 10.439,10.475 z"
   id="path1" />
	
		<linearGradient
   id="SVGID_1_"
   gradientUnits="userSpaceOnUse"
   x1="245.72951"
   y1="453.58359"
   x2="352.9343"
   y2="201.0248"
   gradientTransform="matrix(1,0.0017,-0.0017,1,21.2377,26.6401)">
		<stop
   offset="0"
   style="stop-color:#E1E1E1"
   id="stop1" />
		<stop
   offset="0.1158"
   style="stop-color:#ECECEC"
   id="stop2" />
		<stop
   offset="0.3159"
   style="stop-color:#FAFAFA"
   id="stop3" />
		<stop
   offset="0.4909"
   style="stop-color:#FFFFFF"
   id="stop4" />
		<stop
   offset="0.6975"
   style="stop-color:#FCFCFC"
   id="stop5" />
		<stop
   offset="0.8527"
   style="stop-color:#F2F2F2"
   id="stop6" />
		<stop
   offset="0.991"
   style="stop-color:#E2E2E2"
   id="stop7" />
		<stop
   offset="1"
   style="stop-color:#E1E1E1"
   id="stop8" />
	</linearGradient>
	<path
   style="fill:url(#SVGID_1_)"
   d="m 382.172,464.495 c -0.01,5.776 -4.7,10.45 -10.475,10.438 l -117.234,-0.202 c -5.774,-0.01 -10.449,-4.699 -10.438,-10.475 l 0.328,-188.186 c 0.01,-5.776 4.701,-10.449 10.475,-10.439 l 117.234,0.203 c 5.774,0.01 10.449,4.7 10.439,10.475 z"
   id="path8" />
	<path
   style="clip-rule:evenodd;fill:#eb3000;fill-rule:evenodd"
   d="m 262.492,300.075 c -1.143,0.014 -6.217,5.219 -6.202,6.361 -0.014,-1.142 -5.219,-6.217 -6.362,-6.204 1.143,-0.013 6.217,-5.217 6.203,-6.36 0.014,1.144 5.219,6.217 6.361,6.203 z"
   id="path9" />
	<path
   style="clip-rule:evenodd;fill:#eb3000;fill-rule:evenodd"
   d="m 377.609,435.135 c -1.142,0.003 -6.265,5.16 -6.262,6.302 -0.003,-1.142 -5.161,-6.266 -6.303,-6.263 1.142,-0.003 6.265,-5.158 6.263,-6.301 0.002,1.142 5.16,6.265 6.302,6.262 z"
   id="path10" />
	<path
   style="fill:#b50f00"
   d="m 257.005,284.431 c -0.025,-0.098 -0.097,-0.176 -0.219,-0.176 h -1.802 c -0.073,0 -0.121,0.059 -0.145,0.137 l -0.366,2.157 c -0.024,0.137 0.024,0.255 0.123,0.353 l 0.535,0.451 c 0.097,0.098 0.243,0.177 0.243,0.236 0,0.059 -0.049,0.118 -0.171,0.118 h -2.799 c -0.097,0 -0.145,-0.059 -0.145,-0.118 0,-0.059 0.097,-0.137 0.17,-0.196 l 0.682,-0.549 c 0.146,-0.118 0.171,-0.314 0.195,-0.491 l 2.214,-13.177 c 0.024,-0.098 0.074,-0.176 0.195,-0.176 h 0.9 c 0.122,0 0.194,0.098 0.219,0.216 l 2.312,13.157 c 0.025,0.196 0.098,0.412 0.268,0.53 l 0.706,0.509 c 0.073,0.059 0.146,0.118 0.146,0.177 0,0.059 -0.049,0.118 -0.171,0.118 h -3.504 c -0.122,0 -0.17,-0.059 -0.17,-0.118 0,-0.059 0.097,-0.117 0.17,-0.177 l 0.657,-0.529 c 0.097,-0.078 0.146,-0.216 0.122,-0.392 z m -0.34,-1.215 c 0.073,0 0.122,-0.059 0.097,-0.137 l -0.851,-4.804 h -0.049 l -0.803,4.824 c -0.025,0.078 0.025,0.117 0.074,0.117 z"
   id="path11" />
	<path
   style="fill:#eb3000"
   d="m 257.005,284.431 c -0.025,-0.098 -0.097,-0.176 -0.219,-0.176 h -1.802 c -0.073,0 -0.121,0.059 -0.145,0.137 l -0.366,2.157 c -0.024,0.137 0.024,0.255 0.123,0.353 l 0.535,0.451 c 0.097,0.098 0.243,0.177 0.243,0.236 0,0.059 -0.049,0.118 -0.171,0.118 h -2.799 c -0.097,0 -0.145,-0.059 -0.145,-0.118 0,-0.059 0.097,-0.137 0.17,-0.196 l 0.682,-0.549 c 0.146,-0.118 0.171,-0.314 0.195,-0.491 l 2.214,-13.177 c 0.024,-0.098 0.074,-0.176 0.195,-0.176 h 0.9 c 0.122,0 0.194,0.098 0.219,0.216 l 2.312,13.157 c 0.025,0.196 0.098,0.412 0.268,0.53 l 0.706,0.509 c 0.073,0.059 0.146,0.118 0.146,0.177 0,0.059 -0.049,0.118 -0.171,0.118 h -3.504 c -0.122,0 -0.17,-0.059 -0.17,-0.118 0,-0.059 0.097,-0.117 0.17,-0.177 l 0.657,-0.529 c 0.097,-0.078 0.146,-0.216 0.122,-0.392 z m -0.34,-1.215 c 0.073,0 0.122,-0.059 0.097,-0.137 l -0.851,-4.804 h -0.049 l -0.803,4.824 c -0.025,0.078 0.025,0.117 0.074,0.117 z"
   id="path12" />
	<path
   style="fill:#eb3000"
   d="m 370.638,454.181 c 0.025,0.098 0.097,0.177 0.219,0.177 h 1.802 c 0.073,0 0.122,-0.058 0.145,-0.138 l 0.366,-2.156 c 0.023,-0.137 -0.025,-0.256 -0.122,-0.354 l -0.536,-0.45 c -0.098,-0.098 -0.243,-0.178 -0.243,-0.236 0,-0.058 0.048,-0.117 0.17,-0.117 h 2.799 c 0.097,0 0.146,0.059 0.146,0.117 0,0.058 -0.098,0.138 -0.171,0.196 l -0.682,0.549 c -0.146,0.119 -0.171,0.314 -0.194,0.491 l -2.215,13.177 c -0.025,0.098 -0.074,0.176 -0.195,0.176 h -0.9 c -0.122,0 -0.194,-0.098 -0.219,-0.215 l -2.312,-13.158 c -0.025,-0.196 -0.098,-0.412 -0.268,-0.53 l -0.706,-0.509 c -0.073,-0.059 -0.146,-0.119 -0.146,-0.177 0,-0.058 0.049,-0.117 0.171,-0.117 h 3.504 c 0.122,0 0.171,0.059 0.171,0.117 0,0.058 -0.098,0.117 -0.171,0.177 l -0.657,0.529 c -0.097,0.078 -0.146,0.216 -0.122,0.392 z m 0.341,1.217 c -0.074,0 -0.123,0.059 -0.098,0.137 l 0.852,4.804 h 0.048 l 0.803,-4.824 c 0.025,-0.079 -0.025,-0.117 -0.073,-0.117 z"
   id="path13" />
	
<g
   id="g2"
   transform="matrix(2.1514234,-1.9803956,1.9469378,2.1150762,127.78164,401.19303)"><g
     inkscape:label="Layer 1"
     id="layer1-0"
     style="display:inline"><rect
       style="opacity:0;fill:#9e9e9e;fill-opacity:1;stroke:none;stroke-width:1.2;stroke-miterlimit:4;stroke-dasharray:none;stroke-opacity:1"
       id="rect3810"
       width="113"
       height="32"
       x="32"
       y="0"
       rx="0"
       ry="0"
       inkscape:export-xdpi="180"
       inkscape:export-ydpi="180" /><g
       id="g2807"
       clip-path="url(#clipPath2815)"
       transform="matrix(0.81833207,0,0,0.81833207,42.832558,29.267651)"><path
         transform="matrix(0.09169279,0.01148462,-0.01148462,0.09169279,1.24989,-28.62005)"
         d="m 312.50679,544.32837 c -20.28396,20.1643 -45.83498,-32.08006 -74.19864,-28.40036 -29.32333,3.80421 -41.202,60.28859 -67.50841,46.78663 -25.44547,-13.06007 16.34617,-53.50493 4.08171,-79.34329 -12.67942,-26.71258 -70.06997,-20.55523 -65.35797,-49.74645 4.55778,-28.23586 55.93746,-0.9878 76.72126,-20.63649 21.48703,-20.31349 -2.10362,-72.99241 27.11497,-77.53162 28.26233,-4.39065 18.22508,52.89443 43.33464,66.58923 25.95913,14.15816 68.76986,-24.55656 82.11594,1.82928 12.9093,25.52229 -44.67374,33.67836 -49.93898,61.7909 -5.4434,29.06371 44.60573,57.81562 23.63548,78.66217 z"
         inkscape:randomized="0"
         inkscape:rounded="0.36"
         inkscape:flatsided="false"
         sodipodi:arg2="1.4167054"
         sodipodi:arg1="0.81345017"
         sodipodi:r2="60.646587"
         sodipodi:r1="121.55363"
         sodipodi:cy="456"
         sodipodi:cx="229"
         sodipodi:sides="5"
         id="path4877"
         style="fill:none;fill-opacity:1;stroke:none;stroke-width:16.2321;stroke-miterlimit:4;stroke-dasharray:none;stroke-opacity:1"
         sodipodi:type="star" /><text
         xml:space="preserve"
         style="font-size:53.3333px;line-height:0px;font-family:Haettenschweiler;-inkscape-font-specification:'Haettenschweiler, Normal';text-align:start;writing-mode:lr-tb;direction:ltr;text-anchor:start;fill:#000000"
         x="-26.033113"
         y="78.773453"
         id="text4"><tspan
           sodipodi:role="line"
           id="tspan4"
           x="-26.033113"
           y="78.773453" /></text><text
         xml:space="preserve"
         style="font-size:53.3333px;line-height:0px;font-family:Haettenschweiler;-inkscape-font-specification:'Haettenschweiler, Normal';text-align:start;writing-mode:lr-tb;direction:ltr;text-anchor:start;fill:#1a1a1a"
         x="-164.3443"
         y="97.873581"
         id="text5"><tspan
           sodipodi:role="line"
           id="tspan5"
           x="-164.3443"
           y="97.873581" /></text><text
         xml:space="preserve"
         transform="translate(-92.224893,-62.172229)"
         id="text7"
         style="font-size:53.3333px;line-height:0px;font-family:Haettenschweiler;-inkscape-font-specification:'Haettenschweiler, Normal';text-align:start;writing-mode:lr-tb;direction:ltr;white-space:pre;shape-inside:url(#rect7);fill:#1a1a1a" /></g><rect
       inkscape:export-ydpi="180"
       inkscape:export-xdpi="180"
       ry="0"
       rx="0"
       y="32"
       x="32"
       height="32"
       width="90"
       id="rect3936"
       style="opacity:0;fill:#9e9e9e;fill-opacity:1;stroke:none;stroke-width:1.2;stroke-miterlimit:4;stroke-dasharray:none;stroke-opacity:1" /><rect
       style="opacity:0;fill:#000000;fill-opacity:1;stroke:none;stroke-width:1.2;stroke-miterlimit:4;stroke-dasharray:none;stroke-opacity:1"
       id="rect1966"
       width="90"
       height="32"
       x="32"
       y="64"
       rx="0"
       ry="0"
       inkscape:export-xdpi="180"
       inkscape:export-ydpi="180" /></g><g
     id="layer4"
     inkscape:label="Guillotine"
     style="display:none"><rect
       style="fill:#0000ff;fill-opacity:0.75;fill-rule:evenodd;stroke:none;stroke-width:1px;stroke-linecap:butt;stroke-linejoin:miter;stroke-opacity:1"
       id="rect3342"
       width="23.010735"
       height="15.340489"
       x="36.972717"
       y="40.374142"
       inkscape:export-filename="/home/alex/Projects/phatcore/portfolio/images/thumbs/Anki_Main.png"
       inkscape:export-xdpi="1038.48"
       inkscape:export-ydpi="1038.48" /></g></g></g></g><path
       sodipodi:type="star"
       style="display:inline;fill:url(#linearGradient2);fill-opacity:1;stroke:#ffffff;stroke-width:15.9837;stroke-miterlimit:4;stroke-dasharray:none;stroke-opacity:1"
       id="path4879"
       sodipodi:sides="5"
       sodipodi:cx="229"
       sodipodi:cy="456"
       sodipodi:r1="94"
       sodipodi:r2="52"
       sodipodi:arg1="0.80032243"
       sodipodi:arg2="1.428641"
       inkscape:flatsided="false"
       inkscape:rounded="0.21"
       inkscape:randomized="0"
       d="m 294.46869,523.45259 c -9.08043,8.81335 -45.57491,-17.76993 -58.10148,-15.97712 -12.52658,1.79282 -40.09949,37.54547 -51.28749,31.63294 -11.18801,-5.91252 2.81678,-48.83551 -2.75921,-60.19499 -5.57599,-11.35947 -48.09928,-26.53469 -45.93342,-39.00218 2.16586,-12.46749 47.31577,-12.41208 56.39619,-21.22544 9.08043,-8.81335 10.3725,-53.9448 22.89908,-55.73762 12.52657,-1.79281 26.42597,41.16443 37.61397,47.07695 11.188,5.91252 54.50984,-6.80503 60.08583,4.55445 5.57599,11.35947 -30.98363,37.85309 -33.14948,50.32059 -2.16586,12.46749 23.31643,49.73906 14.23601,58.55242 z"
       transform="matrix(0.05700142,0.12000622,-0.12069355,0.05484727,141.42092,13.148907)"
       inkscape:transform-center-x="-17.501474"
       inkscape:transform-center-y="-37.346403" /><text
       xml:space="preserve"
       style="font-size:24.4291px;line-height:0px;font-family:Haettenschweiler;-inkscape-font-specification:'Haettenschweiler, Normal';text-align:start;writing-mode:lr-tb;direction:ltr;text-anchor:start;fill:#1a1a1a;stroke-width:0.458046"
       x="48.318741"
       y="127.29333"
       id="text1"><tspan
         sodipodi:role="line"
         id="tspan1"
         x="48.318741"
         y="127.29333"
         style="stroke-width:0.458046">Anki papers</tspan></text></g></svg>
